<?xml version="1.0" encoding="UTF-8" standalone="no"?>
<!-- Generator: Adobe Illustrator 16.0.4, SVG Export Plug-In . SVG Version: 6.00 Build 0)  -->

<svg
   xmlns:dc="http://purl.org/dc/elements/1.1/"
   xmlns:cc="http://creativecommons.org/ns#"
   xmlns:rdf="http://www.w3.org/1999/02/22-rdf-syntax-ns#"
   xmlns:svg="http://www.w3.org/2000/svg"
   xmlns="http://www.w3.org/2000/svg"
   xmlns:xlink="http://www.w3.org/1999/xlink"
   xmlns:sodipodi="http://sodipodi.sourceforge.net/DTD/sodipodi-0.dtd"
   xmlns:inkscape="http://www.inkscape.org/namespaces/inkscape"
   version="1.1"
   id="Layer_1"
   x="0px"
   y="0px"
   width="129.14377"
   height="129"
   viewBox="0 0 129.14377 129"
   enable-background="new 0 0 44 44"
   xml:space="preserve"
   inkscape:version="0.91 r13725"
   sodipodi:docname="icon.svg"
   inkscape:export-filename="/home/aquarius/.local/share/gnome-shell/extensions/clock-override@gnomeshell.kryogenix.org/icon-128.png"
   inkscape:export-xdpi="90.000175"
   inkscape:export-ydpi="90.000175"><metadata
     id="metadata4208"><rdf:RDF><cc:Work
         rdf:about=""><dc:format>image/svg+xml</dc:format><dc:type
           rdf:resource="http://purl.org/dc/dcmitype/StillImage" /><dc:title></dc:title></cc:Work></rdf:RDF></metadata><defs
     id="defs4206"><linearGradient
       inkscape:collect="always"
       id="linearGradient4303"><stop
         style="stop-color:#ffffff;stop-opacity:1"
         offset="0"
         id="stop4305" /><stop
         style="stop-color:#808080;stop-opacity:1"
         offset="1"
         id="stop4307" /></linearGradient><radialGradient
       inkscape:collect="always"
       xlink:href="#linearGradient4303"
       id="radialGradient4309"
       cx="64"
       cy="65"
       fx="64"
       fy="65"
       r="63.999873"
       gradientTransform="matrix(0.99999467,0.00326568,-0.00327641,1.0032784,0.21330772,-0.42209782)"
       gradientUnits="userSpaceOnUse" /></defs><sodipodi:namedview
     pagecolor="#ffffff"
     bordercolor="#666666"
     borderopacity="1"
     objecttolerance="10"
     gridtolerance="10"
     guidetolerance="10"
     inkscape:pageopacity="0"
     inkscape:pageshadow="2"
     inkscape:window-width="2481"
     inkscape:window-height="1376"
     id="namedview4204"
     showgrid="false"
     fit-margin-top="0"
     fit-margin-left="0"
     fit-margin-right="0"
     fit-margin-bottom="0"
     inkscape:zoom="4.7689531"
     inkscape:cx="76.731068"
     inkscape:cy="77.00182"
     inkscape:window-x="79"
     inkscape:window-y="27"
     inkscape:window-maximized="1"
     inkscape:current-layer="Layer_1" /><ellipse
     style="opacity:1;fill:#ffffff;fill-opacity:1;stroke:none;stroke-width:1;stroke-linecap:round;stroke-linejoin:round;stroke-miterlimit:4;stroke-dasharray:none;stroke-dashoffset:0;stroke-opacity:1"
     id="path4301"
     cx="63.596745"
     cy="64.500114"
     rx="42.397617"
     ry="42.445267" /><path
     style="color:#000000;font-style:normal;font-variant:normal;font-weight:normal;font-stretch:normal;font-size:medium;line-height:normal;font-family:sans-serif;text-indent:0;text-align:start;text-decoration:none;text-decoration-line:none;text-decoration-style:solid;text-decoration-color:#000000;letter-spacing:normal;word-spacing:normal;text-transform:none;direction:ltr;block-progression:tb;writing-mode:lr-tb;baseline-shift:baseline;text-anchor:start;white-space:normal;clip-rule:nonzero;display:inline;overflow:visible;visibility:visible;opacity:1;isolation:auto;mix-blend-mode:normal;color-interpolation:sRGB;color-interpolation-filters:linearRGB;solid-color:#000000;solid-opacity:1;fill:#333333;fill-opacity:1;fill-rule:evenodd;stroke:#ffffff;stroke-width:0.99169528;stroke-linecap:round;stroke-linejoin:miter;stroke-miterlimit:4;stroke-dasharray:none;stroke-dashoffset:0;stroke-opacity:1;color-rendering:auto;image-rendering:auto;shape-rendering:auto;text-rendering:auto;enable-background:accumulate"
     d="m 40.971513,39.592913 a 2.9737127,2.9770548 0 0 0 -2.005507,5.137619 L 63.547015,68.711256 88.737805,55.862364 A 2.9737127,2.9770548 0 1 0 86.039276,50.558076 L 64.644623,61.470915 43.116399,40.466947 a 2.9737127,2.9770548 0 0 0 -2.144886,-0.874034 z"
     id="path4221"
     inkscape:connector-curvature="0" /><g
     inkscape:label="status"
     id="layer9"
     style="display:inline"
     transform="matrix(9.3112458,0,0,9.0720865,-4226.1598,-3666.1446)" /><g
     inkscape:label="devices"
     id="layer10"
     transform="matrix(9.3112458,0,0,9.0720865,-4226.1598,-3666.1446)" /><g
     inkscape:label="apps"
     id="layer11"
     transform="matrix(9.3112458,0,0,9.0720865,-4226.1598,-3666.1446)" /><g
     inkscape:label="places"
     id="layer13"
     transform="matrix(9.3112458,0,0,9.0720865,-4226.1598,-3666.1446)" /><g
     inkscape:label="mimetypes"
     id="layer14"
     transform="matrix(9.3112458,0,0,9.0720865,-4226.1598,-3666.1446)" /><path
     style="color:#000000;display:inline;overflow:visible;visibility:visible;fill:url(#radialGradient4309);fill-opacity:1;fill-rule:nonzero;stroke:#ffffff;stroke-width:0.99169528;stroke-opacity:1;marker:none;enable-background:accumulate"
     d="m 63.999999,1.4958473 c -2.054531,0 -4.105365,0.1024064 -6.11138,0.2829467 l -3.782581,18.994269 c -3.114246,0.664983 -6.172523,1.595945 -9.018974,2.835284 L 30.827833,10.284645 c -3.618626,2.087577 -6.767642,4.662894 -9.892028,7.370188 l 8.438226,17.294648 c -2.071003,2.258859 -3.95045,4.739283 -5.528699,7.370187 L 4.3497201,39.76927 C 2.6949252,43.477668 1.4752539,47.355423 0.56713321,51.391413 L 17.733961,60.465096 C 17.574735,61.990024 17.443589,63.434158 17.443589,65 c 0,1.565843 0.132078,3.011914 0.290372,4.536842 L 0.56713321,78.608587 C 1.4749764,82.644576 2.6949252,86.524272 4.3497201,90.232668 L 23.845332,87.680331 c 1.578249,2.630906 3.457696,5.113268 5.528699,7.372126 l -8.438226,17.292713 c 3.124386,2.70728 6.273402,5.28455 9.892028,7.37212 l 14.259231,-13.32564 c 2.846451,1.23933 5.904728,2.16994 9.018974,2.83529 l 3.782581,18.99426 c 2.006015,0.18145 4.056849,0.28295 6.11138,0.28295 2.05452,0 4.103422,-0.1024 6.109436,-0.28295 l 3.784524,-18.99426 c 3.114236,-0.66499 6.172524,-1.59596 9.018974,-2.83529 l 14.257289,13.32564 c 3.618628,-2.08757 6.769578,-4.66484 9.893968,-7.37212 L 98.625956,95.052457 c 2.071004,-2.258858 3.950434,-4.74122 5.528704,-7.372126 l 19.4956,2.552337 c 1.6548,-3.708396 2.87447,-7.588092 3.7826,-11.624081 L 110.26602,69.536842 C 110.42525,68.011914 110.5564,66.565843 110.5564,65 c 0,-1.565842 -0.13209,-3.009976 -0.29038,-4.534904 l 17.16684,-9.073683 c -0.90785,-4.03599 -2.1278,-7.913745 -3.7826,-11.622143 l -19.4956,2.550398 c -1.57827,-2.630904 -3.4577,-5.111328 -5.528704,-7.370187 l 8.438234,-17.294648 c -3.12439,-2.707294 -6.27534,-5.282611 -9.893968,-7.370188 L 82.912933,23.608347 C 80.066483,22.369008 77.008195,21.43841 73.893959,20.773063 L 70.109435,1.778794 C 68.103421,1.5973508 66.054519,1.4958473 63.999999,1.4958473 Z m 0,23.3489387 a 40.11147,40.15655 0 0 1 4.0052,0.199614 40.11147,40.15655 0 0 1 3.962621,0.600778 40.11147,40.15655 0 0 1 3.885184,0.992252 40.11147,40.15655 0 0 1 3.767099,1.375975 40.11147,40.15655 0 0 1 3.610302,1.746131 40.11147,40.15655 0 0 1 3.418654,2.098847 40.11147,40.15655 0 0 1 3.19216,2.428305 40.11147,40.15655 0 0 1 2.932769,2.736446 40.11147,40.15655 0 0 1 2.64626,3.015517 40.11147,40.15655 0 0 1 2.332655,3.265518 40.11147,40.15655 0 0 1 1.99389,3.480635 40.11147,40.15655 0 0 1 1.637707,3.664745 40.11147,40.15655 0 0 1 1.26602,3.808155 40.11147,40.15655 0 0 1 0.87693,3.916685 40.11147,40.15655 0 0 1 0.48395,3.984514 40.11147,40.15655 0 0 1 0.10066,2.841097 40.11147,40.15655 0 0 1 -0.20131,4.009707 40.11147,40.15655 0 0 1 -0.59817,3.96901 40.11147,40.15655 0 0 1 -0.99308,3.889552 40.11147,40.15655 0 0 1 -1.37443,3.769396 40.11147,40.15655 0 0 1 -1.744176,3.614357 40.11147,40.15655 0 0 1 -2.096484,3.422496 40.11147,40.15655 0 0 1 -2.425583,3.19575 40.11147,40.15655 0 0 1 -2.733372,2.936059 40.11147,40.15655 0 0 1 -3.012129,2.649237 40.11147,40.15655 0 0 1 -3.261856,2.335281 40.11147,40.15655 0 0 1 -3.476726,1.998065 40.11147,40.15655 0 0 1 -3.660632,1.63955 40.11147,40.15655 0 0 1 -3.80388,1.2655 40.11147,40.15655 0 0 1 -3.912291,0.87791 40.11147,40.15655 0 0 1 -3.980035,0.4845 40.11147,40.15655 0 0 1 -2.837907,0.10077 40.11147,40.15655 0 0 1 -4.00521,-0.20153 40.11147,40.15655 0 0 1 -3.964554,-0.59885 40.11147,40.15655 0 0 1 -3.883251,-0.99419 40.11147,40.15655 0 0 1 -3.767099,-1.37598 40.11147,40.15655 0 0 1 -3.610302,-1.74612 A 40.11147,40.15655 0 0 1 41.350928,98.143555 40.11147,40.15655 0 0 1 38.158769,95.713312 40.11147,40.15655 0 0 1 35.22601,92.976866 40.11147,40.15655 0 0 1 32.579739,89.961349 40.11147,40.15655 0 0 1 30.247085,86.69777 40.11147,40.15655 0 0 1 28.25126,83.215196 40.11147,40.15655 0 0 1 26.613552,79.552389 40.11147,40.15655 0 0 1 25.349464,75.742295 40.11147,40.15655 0 0 1 24.472544,71.825611 40.11147,40.15655 0 0 1 23.988591,67.841097 40.11147,40.15655 0 0 1 23.887921,65 a 40.11147,40.15655 0 0 1 0.20133,-4.007769 40.11147,40.15655 0 0 1 0.598162,-3.96901 40.11147,40.15655 0 0 1 0.993081,-3.889552 40.11147,40.15655 0 0 1 1.374431,-3.771335 40.11147,40.15655 0 0 1 1.744167,-3.614356 40.11147,40.15655 0 0 1 2.094553,-3.422495 40.11147,40.15655 0 0 1 2.427516,-3.193812 40.11147,40.15655 0 0 1 2.733371,-2.937998 40.11147,40.15655 0 0 1 3.01214,-2.649237 40.11147,40.15655 0 0 1 3.259913,-2.33528 40.11147,40.15655 0 0 1 3.478668,-1.996133 40.11147,40.15655 0 0 1 3.660622,-1.639543 40.11147,40.15655 0 0 1 3.80388,-1.265509 40.11147,40.15655 0 0 1 3.912292,-0.879849 40.11147,40.15655 0 0 1 3.980045,-0.484498 40.11147,40.15655 0 0 1 2.837907,-0.09884 z"
     id="path35543-6-4"
     inkscape:connector-curvature="0" /><g
     inkscape:label="emotes"
     id="g71291"
     style="display:inline"
     transform="matrix(9.3112458,0,0,9.0720865,-4226.1598,-3666.1446)" /><g
     inkscape:label="categories"
     id="g4953"
     style="display:inline"
     transform="matrix(9.3112458,0,0,9.0720865,-4226.1598,-3666.1446)" /><g
     inkscape:label="actions"
     id="layer12"
     style="display:inline"
     transform="matrix(9.3112458,0,0,9.0720865,-4226.1598,-3666.1446)" /></svg>